<?xml version="1.0" encoding="UTF-8"?>
<svg id="Layer_1" data-name="Layer 1" xmlns="http://www.w3.org/2000/svg" viewBox="0 0 256.17 46.62">
  <defs>
    <style>
      .cls-1, .cls-2 {
        fill: none;
      }

      .cls-3 {
        fill: #FFF;
      }

      .cls-2 {
        stroke: #33b66a;
        stroke-linecap: round;
        stroke-linejoin: round;
        stroke-width: 2px;
      }
    </style>
  </defs>
  <g>
    <path class="cls-3" d="M12.75,36.97c-2.6,0-5.06-.44-7.38-1.33-2.32-.88-4.11-2.02-5.38-3.42l1.15-1.9c1.2,1.23,2.84,2.27,4.92,3.12,2.08.85,4.29,1.27,6.62,1.27s4.24-.31,5.73-.92c1.48-.62,2.58-1.44,3.3-2.48.72-1.03,1.08-2.18,1.08-3.45,0-1.5-.4-2.7-1.2-3.6-.8-.9-1.85-1.62-3.15-2.15-1.3-.53-2.72-.98-4.25-1.35-1.53-.37-3.08-.76-4.65-1.17-1.57-.42-3-.96-4.3-1.62-1.3-.67-2.34-1.58-3.12-2.73s-1.17-2.64-1.17-4.48c0-1.67.43-3.2,1.3-4.6.87-1.4,2.22-2.53,4.05-3.4,1.83-.87,4.18-1.3,7.05-1.3,1.93,0,3.84.28,5.73.85,1.88.57,3.49,1.33,4.83,2.3l-.95,2.05c-1.47-1-3.04-1.74-4.73-2.23-1.68-.48-3.31-.73-4.88-.73-2.23,0-4.08.32-5.55.95-1.47.63-2.55,1.47-3.25,2.52-.7,1.05-1.05,2.23-1.05,3.52,0,1.5.39,2.7,1.18,3.6.78.9,1.82,1.62,3.12,2.15,1.3.53,2.73.98,4.3,1.35,1.57.37,3.12.76,4.65,1.17,1.53.42,2.95.96,4.25,1.62,1.3.67,2.35,1.57,3.15,2.7.8,1.13,1.2,2.6,1.2,4.4,0,1.63-.45,3.16-1.35,4.58-.9,1.42-2.27,2.55-4.12,3.4-1.85.85-4.22,1.27-7.12,1.27Z"/>
    <path class="cls-3" d="M28.9,12.77v-2.15h15.6v2.15h-15.6ZM40.8,36.92c-2.3,0-4.06-.63-5.27-1.9-1.22-1.27-1.83-3-1.83-5.2V4.92h2.5v24.65c0,1.67.42,2.95,1.25,3.85.83.9,2.03,1.35,3.6,1.35s2.98-.48,4.05-1.45l1.05,1.75c-.67.63-1.48,1.1-2.42,1.4-.95.3-1.93.45-2.93.45Z"/>
    <path class="cls-3" d="M62.35,36.92c-2.5,0-4.73-.57-6.67-1.7-1.95-1.13-3.5-2.7-4.65-4.7-1.15-2-1.72-4.28-1.72-6.85s.57-4.89,1.72-6.88c1.15-1.98,2.7-3.54,4.65-4.68,1.95-1.13,4.17-1.7,6.67-1.7s4.73.57,6.7,1.7c1.97,1.13,3.52,2.69,4.65,4.68,1.13,1.98,1.7,4.27,1.7,6.88s-.57,4.85-1.7,6.85c-1.13,2-2.68,3.57-4.65,4.7-1.97,1.13-4.2,1.7-6.7,1.7ZM62.35,34.67c2,0,3.8-.46,5.4-1.38,1.6-.92,2.85-2.21,3.75-3.88.9-1.67,1.35-3.58,1.35-5.75s-.45-4.12-1.35-5.78c-.9-1.65-2.15-2.93-3.75-3.85-1.6-.92-3.4-1.38-5.4-1.38s-3.79.46-5.38,1.38c-1.58.92-2.83,2.2-3.75,3.85-.92,1.65-1.38,3.58-1.38,5.78s.46,4.08,1.38,5.75c.92,1.67,2.17,2.96,3.75,3.88,1.58.92,3.38,1.38,5.38,1.38Z"/>
    <path class="cls-3" d="M83.15,36.72V10.62h2.4v7.15l-.25-.8c.73-2.1,1.97-3.72,3.7-4.85,1.73-1.13,3.9-1.7,6.5-1.7v2.45c-.1,0-.2,0-.3-.02-.1-.02-.2-.02-.3-.02-2.9,0-5.17.91-6.8,2.73-1.63,1.82-2.45,4.34-2.45,7.57v13.6h-2.5Z"/>
    <path class="cls-3" d="M101.75,46.62c-1.2,0-2.33-.2-3.38-.6-1.05-.4-1.94-.98-2.67-1.75l1.25-1.9c.67.7,1.39,1.22,2.17,1.55.78.33,1.67.5,2.67.5,1.2,0,2.26-.33,3.17-1,.92-.67,1.78-1.88,2.58-3.65l1.8-4,.35-.45,11.05-24.7h2.55l-13.4,29.65c-.7,1.6-1.46,2.86-2.27,3.78-.82.92-1.71,1.57-2.67,1.97-.97.4-2.03.6-3.2.6ZM109.3,37.37l-12.1-26.75h2.65l11,24.55-1.55,2.2Z"/>
    <path class="cls-3" d="M129.55,36.72V1.72h2.55v32.7h20.15v2.3h-22.7Z"/>
    <path class="cls-3" d="M159.25,4.27c-.57,0-1.05-.2-1.45-.6-.4-.4-.6-.87-.6-1.4,0-.57.2-1.05.6-1.45.4-.4.88-.6,1.45-.6.6,0,1.09.19,1.48.58.38.38.57.86.57,1.42s-.19,1.05-.57,1.45c-.38.4-.88.6-1.48.6ZM158,36.72V10.62h2.5v26.1h-2.5Z"/>
    <path class="cls-3" d="M171.05,36.72V10.62h2.4v7.25l-.35-.8c.8-2.07,2.12-3.69,3.95-4.88,1.83-1.18,4.08-1.77,6.75-1.77,2.13,0,3.99.41,5.58,1.22,1.58.82,2.82,2.05,3.7,3.7.88,1.65,1.33,3.69,1.33,6.12v15.25h-2.5v-15.05c0-2.93-.74-5.17-2.23-6.7-1.48-1.53-3.56-2.3-6.22-2.3-2.03,0-3.8.42-5.3,1.25-1.5.83-2.64,2-3.43,3.5s-1.17,3.3-1.17,5.4v13.9h-2.5Z"/>
    <path class="cls-3" d="M215.3,36.92c-2.63,0-4.96-.57-6.98-1.7-2.02-1.13-3.6-2.7-4.75-4.7-1.15-2-1.72-4.28-1.72-6.85s.54-4.89,1.62-6.88c1.08-1.98,2.58-3.54,4.47-4.68,1.9-1.13,4.03-1.7,6.4-1.7s4.49.55,6.38,1.65c1.88,1.1,3.37,2.64,4.45,4.62,1.08,1.98,1.62,4.27,1.62,6.88,0,.1,0,.21-.03.32-.02.12-.03.24-.03.38h-23.05v-1.95h21.7l-1,.95c.03-2.03-.39-3.86-1.28-5.47-.88-1.62-2.07-2.88-3.57-3.8-1.5-.92-3.23-1.38-5.2-1.38s-3.66.46-5.17,1.38c-1.52.92-2.71,2.18-3.58,3.8-.87,1.62-1.3,3.46-1.3,5.52v.45c0,2.13.47,4.03,1.42,5.68s2.26,2.93,3.92,3.85c1.67.92,3.57,1.38,5.7,1.38,1.67,0,3.22-.3,4.67-.9,1.45-.6,2.67-1.52,3.67-2.75l1.45,1.65c-1.13,1.4-2.56,2.46-4.28,3.17-1.72.72-3.57,1.08-5.57,1.08Z"/>
  </g>
  <path class="cls-1" d="M239.01,0l17.16,16.78-25.24,25.81-17.16-16.78L239.01,0Z"/>
  <path class="cls-2" d="M240.63,15.46l-6.31,6.45M231.17,25.14l-1.58,1.61M226.44,29.98l-.53.54"/>
  <path class="cls-2" d="M240.99,20.86l1.35-7.1"/>
  <path class="cls-2" d="M235.27,15.27l7.07-1.51"/>
</svg>
