<?xml version="1.0" encoding="UTF-8"?>
<svg id="Camada_1" xmlns="http://www.w3.org/2000/svg" version="1.1" viewBox="0 0 2262.28 1275.67">
  <!-- Generator: Adobe Illustrator 29.8.2, SVG Export Plug-In . SVG Version: 2.1.1 Build 3)  -->
  <defs>
    <style>
      .st0 {
        fill: none;
      }

      .st1 {
        fill: #faceb5;
      }

      .st2 {
        fill: #fff;
      }

      .st3 {
        fill: #f44799;
      }
    </style>
  </defs>
  <g>
    <g>
      <path class="st1" d="M1339.4,712.15c3.2,12.8,6.4,25.7,9.6,38.5,115.4,30.8,157.8-54.4,150-80.8-9.6-32.7-80.2-35.7-105.8-17.3-15.7,11.3-5.7,26.8-25,46.2-5.7,5.7-18.1,11.6-28.8,13.4h0Z"/>
      <path d="M1438.7,641.25c26.8,0,54.6,8.9,60.4,28.6,6.6,22.5-23.1,87.4-103.1,87.4-14.1,0-29.7-2-47-6.6-3.2-12.8-6.4-25.7-9.6-38.5,10.7-1.8,23.1-7.7,28.8-13.5,19.3-19.3,9.3-34.9,25-46.2,10.3-7.2,27.7-11.2,45.5-11.2M1438.7,612.45c-24.8,0-47.5,6.1-62.2,16.7-16.3,11.7-20,26.9-22.2,36-1.5,6.3-2.2,8.9-6.2,13-1.8,1.5-8.1,4.7-13.3,5.5l-30.8,5.1,7.6,30.3,4.9,19.7,4.7,18.7,4.1,16.5,16.4,4.4c18.9,5,37.2,7.6,54.4,7.6,63,0,96.9-32.8,111.5-52.3,17.9-23.9,25.2-51.5,19.2-72.1-9-30.2-42.7-49.1-88.1-49.1h0Z"/>
      <path class="st1" d="M906.6,712.15c-3.2,12.8-6.4,25.7-9.6,38.5-115.4,30.8-157.8-54.4-150-80.8,9.6-32.7,80.2-35.7,105.8-17.3,15.7,11.3,5.7,26.8,25,46.2,5.7,5.7,18.1,11.6,28.8,13.4h0Z"/>
      <path d="M807.3,641.25c17.8,0,35.2,3.9,45.4,11.3,15.7,11.3,5.7,26.8,25,46.2,5.8,5.8,18.2,11.7,28.8,13.5-3.2,12.8-6.4,25.7-9.6,38.5-17.3,4.6-32.9,6.6-47,6.6-80,0-109.7-64.9-103.1-87.4,5.9-19.7,33.7-28.7,60.5-28.7M807.3,612.45c-45.4,0-79.1,18.9-88.1,49.3-6,20.5,1.3,48.2,19.2,72.1,14.6,19.5,48.5,52.3,111.5,52.3,17.2,0,35.5-2.5,54.4-7.6l16.4-4.4,4.1-16.5,4.7-18.7,4.9-19.7,7.6-30.3-30.8-5.1c-5.2-.9-11.5-4-13.3-5.5-4.1-4.1-4.7-6.8-6.2-13-2.2-9.1-5.9-24.3-22.2-36-14.7-10.9-37.4-16.9-62.2-16.9h0Z"/>
    </g>
    <ellipse class="st2" cx="1122.4" cy="791.05" rx="204.9" ry="228.3"/>
    <path class="st3" d="M1082.9,571.85c23.5,12.3,29.8,43.4,32.7,57.7,6.9,34,1.2,85.1-28.8,102-29.9,16.7-54.4-17-96.2-3.8-48,15.1-58.5,73.2-71.2,69.2-14.9-4.6-19.9-90.8,26.9-155.8,32.6-45.1,97.2-89.9,136.6-69.3h0Z"/>
    <path class="st3" d="M1287.7,889.65c-25.9,5.7-50.7-14.1-62.2-23.2-27.1-21.6-55.7-64.4-43.4-96.7,12.2-32,52.6-22,76.2-58.9,27-42.4-2.3-93.6,10-98.8,14.4-6.1,73.6,56.8,79.5,136.7,4.1,55.5-16.7,131.3-60.1,140.9h0Z"/>
    <path d="M1122.4,562.75c113.1,0,204.9,102.2,204.9,228.3s-91.7,228.3-204.9,228.3-204.8-102.2-204.8-228.3,91.7-228.3,204.8-228.3M1122.4,533.95c-63,0-122.1,27.2-166.3,76.4-43.5,48.4-67.4,112.6-67.4,180.7s23.9,132.3,67.4,180.7c44.2,49.3,103.3,76.4,166.3,76.4s122.1-27.2,166.3-76.4c43.5-48.4,67.5-112.6,67.5-180.7s-24-132.3-67.4-180.7c-44.3-49.3-103.3-76.4-166.4-76.4h0Z"/>
    <path class="st1" d="M997.4,1133.75c60.5,18.7,192.7,18.7,253.2,0,46.6-14.4,65.8-67.9,65.8-112.9,0-82.8-86.1-150-192.4-150s-192.4,67.2-192.4,150c0,45,19.2,98.5,65.8,112.9h0Z"/>
    <path class="st1" d="M1122.4,870.85c-106.2,0-192.4,67.2-192.4,150,0,45.1,19.2,98.6,65.8,112.9,30.2,9.3,78.4,14,126.6,14s96.3-4.7,126.6-14c46.6-14.4,65.8-67.9,65.8-112.9,0-82.9-86.1-150-192.4-150h0Z"/>
    <path d="M1036.1,962.55c48.9-6,73.3,60,18.8,97.4-92.6,63.6-90.3-88.7-18.8-97.4h0Z"/>
    <path d="M1210.6,962.55c-48.9-6-73.3,60-18.8,97.4,92.5,63.6,90.3-88.7,18.8-97.4h0Z"/>
    <rect id="_x3C_Fatia_x3E_" class="st0" x="889.3" y="533.25" width="467.4" height="644.4"/>
    <path d="M1325.1,948.65c-7.4-13.7-16.8-26.4-28.1-38-4.9,8.8-10.2,17.2-16.1,25.1,21.4,24.2,33.9,53.5,33.9,85.1,0,45.1-19.2,98.6-65.8,112.9-30.2,9.3-78.4,14-126.6,14s-96.3-4.7-126.6-14c-46.6-14.4-65.8-67.9-65.8-112.9,0-31.6,12.5-60.9,33.9-85.1-5.8-7.9-11.2-16.3-16.1-25.1-11.3,11.7-20.7,24.4-28.1,38-12.3,22.8-18.6,47-18.6,72.2,0,28.8,6.6,57.6,18.6,81.1,15.3,30,38.7,50.5,67.6,59.4,31.5,9.7,80.7,15.3,135.1,15.3s103.6-5.6,135.1-15.3c28.9-8.9,52.3-29.5,67.6-59.4,12-23.4,18.6-52.2,18.6-81.1,0-25.1-6.3-49.4-18.6-72.2h0Z"/>
    <g>
      <path d="M925.9,666.05c10.1,2.3,9.8-21.4,36.5-48.1,42.5-42.6,89.8-63.3,82.7-61.6-127,30.8-99.7-86.4-98.1-88.5-84.6,59.7-38.5,194.2-21.1,198.2h0Z"/>
      <path d="M1317.7,666.05c-10.1,2.3-9.8-21.4-36.5-48.1-42.5-42.6-89.8-63.3-82.7-61.6,127,30.8,99.7-86.4,98.1-88.5,84.6,59.7,38.4,194.2,21.1,198.2h0Z"/>
    </g>
    <circle class="st2" cx="1228.9" cy="790.35" r="22.6"/>
    <path d="M1228.5,758.35c-18.1,0-32.7,14.6-32.7,32.7s14.6,32.7,32.7,32.7,32.7-14.6,32.7-32.7-14.7-32.7-32.7-32.7ZM1228.5,806.55c-8.6,0-15.5-6.9-15.5-15.5s6.9-15.5,15.5-15.5,15.5,6.9,15.5,15.5-7,15.5-15.5,15.5Z"/>
    <path d="M999.3,791.85v-.8c0-8.6,6.9-15.5,15.5-15.5s15.5,6.9,15.5,15.5v.8h17.2v-.8c0-18.1-14.6-32.7-32.7-32.7s-32.7,14.6-32.7,32.7v.8h17.2Z"/>
  </g>
  <g>
    <path d="M4.46,569.61l30.75-33.73,115.09,58.65c26.08,13.11,47.68,25.54,74.02,38.49l1-1.09c-15.32-25.04-29.56-45.55-45.19-70.14l-69.35-108.86,29.63-32.51,132.48,222.52-34.45,37.79L4.43,569.61h.02s0,0,0,0Z"/>
    <path d="M223.67,354.17l40.4-30.35,212.16,150.55-36.5,27.41-108.77-83.2c-21.92-16.33-44.6-34.65-66.65-52.11l-1.19.88c11.14,25.94,22.26,52.65,31.83,78.26l49.36,127.83-35.17,26.42-85.48-245.72v.02s0,0,0,0ZM285.55,490.5l91.51-68.73,20.7,27.56-91.51,68.73-20.7-27.56h0Z"/>
    <path d="M425.27,363.98c-35.23-73.03-11.31-138.09,44.1-164.82,27.45-13.24,55.72-10.39,76.68-2.16l-8.43,35.53c-16.78-6.04-33.73-7.63-50.85.65-35.61,17.19-46.38,60.23-22.22,110.32,24.56,50.91,63,70.41,99.67,52.71,19.4-9.36,30.01-25.73,35.67-45.48l32.73,14.84c-7.6,29.59-24.9,52.07-53.29,65.75-55.02,26.55-118.48,6.51-154.1-67.35h.02s0,0,0,0Z"/>
    <path d="M655.67,134.41l48.75-13.33,141.78,218.16-44.03,12.04-70.45-117.44c-14.38-23.26-28.7-48.64-42.75-73l-1.43.39c.79,28.23,1.3,57.14.76,84.5l-1.22,137.02-42.46,11.6,11.09-259.92-.02-.02h0ZM662.95,283.97l110.42-30.17,9.1,33.26-110.42,30.17-9.1-33.26Z"/>
    <path d="M917.76,297.61l22.03-32.5c18.98,15.1,43.32,24.12,65.79,21.9,27.21-2.69,40.9-16.76,38.99-36-2.01-20.28-18.25-25.22-41.15-32.56l-34.5-11.36c-24.8-7.74-51.78-24.5-55.37-60.53-3.88-39.28,27.13-72.91,74.33-77.57,28.26-2.79,56.8,6.41,77.65,24.06l-19.29,29.94c-16.7-11.82-33.91-18.04-54.62-15.99-22.92,2.27-36.78,14.68-35.01,32.73,1.91,19.39,21.03,24.72,41.92,31.12l34.01,10.74c29.97,9.38,51.93,25.91,55.48,61.67,3.95,39.98-25.28,76.54-79.57,81.91-32.69,3.24-65.5-6.75-90.7-27.51v-.02s-.01,0-.01,0Z"/>
    <path d="M1177.36,101.53l-70.14-1.24.64-36.98,183.39,3.23-.64,36.98-70.14-1.24-3.7,210.79-43.11-.75,3.7-210.79h0Z"/>
    <path d="M1317.05,190.47c13.51-79.03,64.69-118.25,127.11-107.57,62.42,10.66,97.63,64.91,84.16,143.7-13.51,79.03-65.03,120.2-127.45,109.51-62.42-10.66-97.33-66.62-83.84-145.65l.02.02h0ZM1484.66,219.14c9.37-54.83-9.28-92.15-46.93-98.58-37.65-6.43-67.66,22.57-77.03,77.4-9.37,54.83,8.94,94.1,46.59,100.53,37.65,6.43,67.99-24.5,77.36-79.33v-.02Z"/>
    <path d="M1630.33,129.76l76.61,28.95c47.28,17.87,77.29,48.64,57.74,100.38-18.82,49.84-63.79,58.69-111.09,40.82l-36.29-13.71-34.23,90.6-40.32-15.24,87.59-231.82v.02s0,0,0,0ZM1661.85,265.45c31.13,11.78,53.1,4.99,63.05-21.39,10.08-26.65-3.41-42.28-34.55-54.04l-32.12-12.14-28.5,75.42,32.12,12.14h0ZM1650.17,286.07l38.46-13.49,23.34,152.92-45.32-17.13-16.48-122.31h0Z"/>
    <path d="M1857.43,226.95l37.67,20.99-120.65,216.44-37.65-20.99,120.63-216.44h0Z"/>
    <path d="M1971.29,293.79l116.04,89.04-22.52,29.34-81.85-62.79-38.67,50.37,69.35,53.22-22.52,29.34-69.35-53.22-44.67,58.19,84.8,65.05-22.52,29.34-118.99-91.31,150.86-196.58.02.02h.01Z"/>
    <path d="M1979.33,574.9l39.25-.89c-1.31,24.2,5.45,49.28,20.3,66.29,17.96,20.62,37.37,23.62,51.94,10.92,15.38-13.39,9.98-29.5,2.68-52.42l-10.75-34.69c-8.07-24.72-10.06-56.39,17.25-80.2,29.76-25.94,75.14-20.13,106.3,15.61,18.66,21.41,27.71,50,25.4,77.23l-35.58,1.63c-.04-20.48-4.96-38.09-18.62-53.76-15.13-17.36-33.29-21.46-46.93-9.57-14.68,12.79-7.94,31.49-1.05,52.19l10.98,33.93c9.74,29.86,8.97,57.35-18.11,80.94-30.28,26.38-77.03,23.74-112.85-17.39-21.59-24.76-32.45-57.29-30.17-89.84h-.02s0,.01,0,.01Z"/>
  </g>
</svg>