<?xml version="1.0" encoding="UTF-8"?>
<svg id="Camada_1" xmlns="http://www.w3.org/2000/svg" version="1.1" viewBox="0 0 309.5 313">
  <!-- Generator: Adobe Illustrator 29.8.2, SVG Export Plug-In . SVG Version: 2.1.1 Build 3)  -->
  <defs>
    <style>
      .st0 {
        fill: none;
      }

      .st1 {
        stroke: #000;
        stroke-miterlimit: 10;
      }

      .st1, .st2 {
        fill: #fff;
      }

      .st3 {
        fill: #00c16a;
      }

      .st4 {
        fill: #ff459c;
      }

      .st5 {
        fill: #ffceb4;
      }
    </style>
  </defs>
  <path class="st3" d="M261.26,51.24C233,22.98,195.43,7.41,155.47,7.41s-77.54,15.56-105.8,43.82S5.84,117.07,5.84,157.03s15.56,77.54,43.82,105.8,65.83,43.82,105.8,43.82,77.54-15.56,105.8-43.82c28.26-28.26,43.82-65.83,43.82-105.8s-15.56-77.54-43.82-105.8h0Z"/>
  <g>
    <path class="st5" d="M223.64,116.01c1.01,4.02,2.01,8.04,3.02,12.07,36.2,9.65,49.5-17.05,47.06-25.34-3.02-10.26-25.14-11.21-33.18-5.43-4.93,3.54-1.78,8.42-7.84,14.48-1.81,1.81-5.7,3.66-9.05,4.22h-.01Z"/>
    <path d="M254.77,93.77c8.41,0,17.13,2.8,18.94,8.97,2.07,7.05-7.23,27.41-32.33,27.41-4.41,0-9.32-.63-14.73-2.07-1.01-4.02-2.01-8.04-3.02-12.07,3.35-.56,7.24-2.41,9.05-4.22,6.06-6.06,2.91-10.94,7.84-14.48,3.21-2.3,8.65-3.54,14.24-3.54M254.77,84.72c-7.77,0-14.88,1.91-19.52,5.24-5.12,3.68-6.27,8.45-6.96,11.3-.47,1.96-.67,2.79-1.96,4.09-.56.47-2.54,1.46-4.18,1.74l-9.67,1.61,2.38,9.51,1.55,6.19,1.47,5.88,1.29,5.17,5.15,1.37c5.92,1.58,11.66,2.38,17.07,2.38,19.76,0,30.4-10.28,34.98-16.41,5.61-7.5,7.92-16.16,6.02-22.61-2.81-9.54-13.39-15.46-27.63-15.46h.01Z"/>
    <path class="st5" d="M87.88,116.01c-1.01,4.02-2.01,8.04-3.02,12.07-36.2,9.65-49.5-17.05-47.06-25.34,3.02-10.26,25.14-11.21,33.18-5.43,4.93,3.54,1.78,8.42,7.84,14.48,1.81,1.81,5.7,3.66,9.05,4.22h.01Z"/>
    <path d="M56.75,93.77c5.58,0,11.03,1.23,14.24,3.54,4.93,3.54,1.78,8.42,7.84,14.48,1.81,1.81,5.7,3.66,9.05,4.22-1.01,4.02-2.01,8.04-3.02,12.07-5.42,1.44-10.32,2.07-14.73,2.07-25.09,0-34.4-20.37-32.33-27.41,1.81-6.16,10.53-8.97,18.94-8.97M56.75,84.72c-14.24,0-24.82,5.93-27.63,15.46-1.9,6.45.41,15.11,6.02,22.61,4.59,6.13,15.23,16.41,34.98,16.41,5.4,0,11.14-.8,17.07-2.38l5.15-1.37,1.29-5.17,1.47-5.88,1.55-6.19,2.38-9.51-9.67-1.61c-1.65-.27-3.62-1.27-4.18-1.74-1.29-1.3-1.49-2.12-1.96-4.09-.69-2.85-1.84-7.62-6.96-11.3-4.63-3.33-11.75-5.24-19.52-5.24h0Z"/>
  </g>
  <ellipse class="st2" cx="155.59" cy="140.75" rx="64.25" ry="71.6"/>
  <path class="st4" d="M143.19,72.01c7.36,3.85,9.34,13.6,10.26,18.1,2.16,10.65.39,26.7-9.05,31.98-9.38,5.24-17.08-5.33-30.17-1.21-15.05,4.74-18.33,22.95-22.32,21.72-4.69-1.45-6.25-28.49,8.45-48.87,10.2-14.14,30.46-28.18,42.84-21.72h0Z"/>
  <path class="st4" d="M207.4,171.67c-8.11,1.79-15.9-4.42-19.49-7.27-8.5-6.77-17.46-20.2-13.62-30.31,3.82-10.05,16.51-6.89,23.88-18.47,8.48-13.31-.71-29.37,3.14-30.99,4.52-1.9,23.1,17.81,24.94,42.86,1.28,17.39-5.22,41.17-18.85,44.17h0Z"/>
  <path d="M155.59,69.15c35.49,0,64.25,32.05,64.25,71.6s-28.77,71.6-64.25,71.6-64.25-32.05-64.25-71.6,28.77-71.6,64.25-71.6M155.59,60.1c-19.77,0-38.29,8.51-52.17,23.98-13.63,15.19-21.13,35.31-21.13,56.67s7.51,41.48,21.13,56.67c13.88,15.46,32.4,23.98,52.17,23.98s38.29-8.51,52.17-23.98c13.63-15.19,21.13-35.31,21.13-56.67s-7.51-41.48-21.13-56.67c-13.88-15.46-32.4-23.98-52.17-23.98h0Z"/>
  <path class="st5" d="M116.37,248.24c18.97,5.85,60.43,5.85,79.4,0,14.62-4.51,20.63-21.3,20.63-35.42,0-25.98-27.01-47.05-60.33-47.05s-60.33,21.06-60.33,47.05c0,14.13,6.01,30.91,20.63,35.42Z"/>
  <path class="st5" d="M155.59,165.77c-33.32,0-60.33,21.06-60.33,47.05,0,14.13,6.01,30.91,20.63,35.42,9.48,2.93,24.59,4.39,39.7,4.39s30.22-1.46,39.7-4.39c14.62-4.51,20.63-21.3,20.63-35.42,0-25.98-27.01-47.05-60.33-47.05Z"/>
  <path d="M128.5,194.52c15.34-1.87,22.99,18.82,5.9,30.56-29.03,19.95-28.33-27.83-5.9-30.56Z"/>
  <path d="M183.23,194.52c-15.34-1.87-22.99,18.82-5.9,30.56,29.03,19.95,28.33-27.83,5.9-30.56Z"/>
  <rect id="_Fatia_" class="st0" x="82.46" y="59.9" width="146.61" height="202.11"/>
  <path d="M219.13,190.19c-2.33-4.29-5.28-8.28-8.81-11.93-1.52,2.76-3.21,5.39-5.04,7.88,6.71,7.58,10.64,16.77,10.64,26.68,0,14.13-6.01,30.91-20.63,35.42-9.48,2.93-24.59,4.39-39.7,4.39s-30.22-1.46-39.7-4.39c-14.62-4.51-20.63-21.3-20.63-35.42,0-9.91,3.93-19.1,10.64-26.68-1.83-2.49-3.52-5.12-5.04-7.88-3.53,3.65-6.48,7.65-8.81,11.93-3.87,7.14-5.84,14.75-5.84,22.63,0,9.04,2.07,18.07,5.82,25.43,4.79,9.4,12.12,15.84,21.19,18.64,9.87,3.05,25.31,4.79,42.37,4.79s32.5-1.75,42.37-4.79c9.07-2.8,16.4-9.24,21.19-18.64,3.75-7.36,5.82-16.39,5.82-25.43,0-7.87-1.96-15.49-5.84-22.63h0Z"/>
  <g>
    <path d="M93.93,101.53c3.16.72,3.09-6.7,11.46-15.08,13.35-13.36,28.17-19.85,25.94-19.31-39.82,9.65-31.26-27.1-30.77-27.75-26.55,18.7-12.07,60.91-6.64,62.14h.01Z"/>
    <path d="M216.83,101.53c-3.16.72-3.09-6.7-11.46-15.08-13.35-13.36-28.17-19.85-25.94-19.31,39.82,9.65,31.26-27.1,30.77-27.75,26.55,18.7,12.07,60.91,6.64,62.14h0Z"/>
  </g>
  <circle class="st2" cx="188.98" cy="140.51" r="7.08"/>
  <path d="M188.84,130.49c-5.66,0-10.26,4.59-10.26,10.26s4.59,10.26,10.26,10.26,10.26-4.59,10.26-10.26-4.59-10.26-10.26-10.26ZM188.84,145.6c-2.68,0-4.86-2.18-4.86-4.86s2.18-4.86,4.86-4.86,4.86,2.18,4.86,4.86-2.18,4.86-4.86,4.86Z"/>
  <path d="M116.96,140.98c0-.08-.01-.16-.01-.24,0-2.68,2.18-4.86,4.86-4.86s4.86,2.18,4.86,4.86c0,.08,0,.16-.01.24h5.4v-.24c0-5.66-4.59-10.26-10.26-10.26s-10.26,4.59-10.26,10.26v.24h5.42Z"/>
  <path class="st1" d="M262.97,49.53C234.25,20.81,196.07,5,155.47,5s-78.79,15.81-107.5,44.53C19.24,78.25,3.43,116.42,3.43,157.03s15.81,78.79,44.53,107.5c28.72,28.72,66.89,44.53,107.5,44.53s78.79-15.81,107.5-44.53c28.72-28.72,44.53-66.89,44.53-107.5s-15.81-78.79-44.53-107.5h.01ZM155.47,291.1c-74.04,0-134.06-60.02-134.06-134.06,0-11.22,1.39-22.12,3.98-32.53-5.48-8.95-7.33-18.75-4.94-26.87,3.36-11.42,13.78-19.2,28.01-21.35,24.47-32.38,63.3-53.31,107.01-53.31s82.47,20.89,106.94,53.22c14.56,2.01,25.26,9.84,28.67,21.44,2.45,8.33.44,18.41-5.37,27.55,2.49,10.21,3.82,20.88,3.82,31.85,0,74.04-60.02,134.06-134.06,134.06h0Z"/>
</svg>