<?xml version="1.0" encoding="UTF-8"?>
<svg id="Camada_1" data-name="Camada 1" xmlns="http://www.w3.org/2000/svg" viewBox="0 0 833.89 735.95">
  <defs>
    <style>
      .cls-1 {
        fill: none;
      }

      .cls-1, .cls-2, .cls-3, .cls-4, .cls-5 {
        stroke-width: 0px;
      }

      .cls-3 {
        fill: #faceb5;
      }

      .cls-4 {
        fill: #f44799;
      }

      .cls-5 {
        fill: #fff;
      }
    </style>
  </defs>
  <g>
    <path class="cls-3" d="M634.8,257.4c3.21,12.82,6.41,25.65,9.62,38.47,115.42,30.78,157.81-54.37,150.04-80.79-9.62-32.7-80.16-35.73-105.8-17.31-15.72,11.29-5.67,26.83-25.01,46.17-5.77,5.76-18.16,11.67-28.85,13.46Z"/>
    <path class="cls-2" d="M734.05,186.49c26.82,0,54.62,8.94,60.4,28.59,6.61,22.47-23.06,87.41-103.07,87.41-14.07,0-29.71-2.01-46.98-6.61-3.21-12.82-6.41-25.65-9.62-38.47,10.69-1.78,23.08-7.69,28.85-13.47,19.33-19.33,9.29-34.88,25.01-46.17,10.25-7.35,27.61-11.28,45.41-11.28M734.05,157.63c-24.77,0-47.46,6.09-62.23,16.7-16.32,11.72-20,26.94-22.2,36.03-1.51,6.26-2.15,8.89-6.25,13.04-1.8,1.49-8.09,4.66-13.33,5.54l-30.82,5.14,7.58,30.31,4.93,19.73,4.69,18.74,4.12,16.5,16.43,4.38c18.88,5.04,37.19,7.59,54.41,7.59,62.99,0,96.92-32.78,111.54-52.32,17.89-23.91,25.25-51.53,19.21-72.08-8.94-30.4-42.69-49.3-88.08-49.3h0Z"/>
    <path class="cls-3" d="M201.94,257.4c-3.21,12.82-6.41,25.65-9.62,38.47-115.42,30.78-157.81-54.37-150.04-80.79,9.62-32.7,80.16-35.73,105.8-17.31,15.72,11.29,5.67,26.83,25.01,46.17,5.77,5.76,18.16,11.67,28.85,13.46Z"/>
    <path class="cls-2" d="M102.69,186.49c17.8,0,35.17,3.93,45.4,11.28,15.72,11.29,5.68,26.83,25.01,46.17,5.77,5.77,18.16,11.68,28.85,13.47-3.21,12.82-6.41,25.65-9.62,38.47-17.27,4.6-32.9,6.61-46.98,6.61-80.01,0-109.67-64.94-103.07-87.41,5.79-19.66,33.58-28.59,60.41-28.59M102.69,157.63c-45.39,0-79.14,18.89-88.08,49.3-6.04,20.55,1.32,48.17,19.21,72.08,14.62,19.54,48.55,52.32,111.54,52.32,17.22,0,35.53-2.55,54.41-7.59l16.43-4.38,4.12-16.5,4.69-18.74,4.93-19.73,7.58-30.31-30.82-5.14c-5.25-.88-11.53-4.05-13.33-5.54-4.1-4.14-4.74-6.77-6.25-13.04-2.2-9.09-5.87-24.31-22.2-36.03-14.78-10.61-37.46-16.7-62.23-16.7h0Z"/>
  </g>
  <ellipse class="cls-5" cx="417.81" cy="336.27" rx="204.86" ry="228.28"/>
  <path class="cls-4" d="M378.29,117.11c23.48,12.27,29.79,43.38,32.7,57.71,6.89,33.96,1.25,85.13-28.85,101.95-29.91,16.71-54.44-16.99-96.18-3.85-48,15.11-58.46,73.19-71.17,69.25-14.94-4.63-19.92-90.83,26.93-155.81,32.51-45.1,97.12-89.87,136.57-69.25Z"/>
  <path class="cls-4" d="M583.03,434.87c-25.87,5.7-50.71-14.08-62.15-23.19-27.11-21.59-55.68-64.41-43.43-96.65,12.17-32.03,52.63-21.98,76.15-58.88,27.05-42.43-2.26-93.64,10.01-98.8,14.42-6.06,73.64,56.78,79.53,136.67,4.08,55.46-16.63,131.28-60.11,140.85Z"/>
  <path class="cls-2" d="M417.81,107.99c113.14,0,204.86,102.2,204.86,228.28s-91.72,228.28-204.86,228.28-204.86-102.2-204.86-228.28,91.72-228.28,204.86-228.28M417.81,79.14c-63.02,0-122.1,27.15-166.34,76.44-43.45,48.42-67.38,112.59-67.38,180.69s23.93,132.27,67.38,180.69c44.24,49.3,103.31,76.44,166.34,76.44s122.1-27.15,166.34-76.44c43.45-48.42,67.38-112.59,67.38-180.69s-23.93-132.27-67.38-180.69c-44.24-49.3-103.31-76.44-166.34-76.44h0Z"/>
  <path class="cls-3" d="M292.77,679.01c60.48,18.66,192.69,18.66,253.16,0,46.63-14.39,65.78-67.9,65.78-112.95,0-82.85-86.12-150.01-192.36-150.01s-192.36,67.16-192.36,150.01c0,45.05,19.15,98.56,65.78,112.95Z"/>
  <path class="cls-3" d="M417.81,416.06c-106.24,0-192.36,67.16-192.36,150.01,0,45.05,19.15,98.56,65.78,112.95,30.24,9.33,78.41,14,126.58,14s96.34-4.67,126.58-14c46.63-14.39,65.78-67.9,65.78-112.95,0-82.85-86.12-150.01-192.36-150.01Z"/>
  <path class="cls-2" d="M331.45,507.73c48.92-5.95,73.29,59.99,18.8,97.44-92.55,63.62-90.33-88.74-18.8-97.44Z"/>
  <path class="cls-2" d="M505.94,507.73c-48.92-5.95-73.29,59.99-18.8,97.44,92.56,63.62,90.34-88.74,18.8-97.44Z"/>
  <rect id="_Fatia_" data-name="&amp;lt;Fatia&amp;gt;" class="cls-1" x="184.67" y="78.5" width="467.44" height="644.41"/>
  <path class="cls-2" d="M620.42,493.92c-7.42-13.68-16.83-26.4-28.09-38.05-4.86,8.79-10.23,17.18-16.08,25.12,21.39,24.18,33.93,53.48,33.93,85.08,0,45.05-19.15,98.56-65.78,112.95-30.24,9.33-78.41,14-126.58,14s-96.34-4.67-126.58-14c-46.63-14.39-65.78-67.9-65.78-112.95,0-31.59,12.54-60.9,33.93-85.08-5.85-7.94-11.22-16.34-16.08-25.12-11.26,11.65-20.67,24.38-28.09,38.05-12.35,22.76-18.61,47.04-18.61,72.15,0,28.83,6.59,57.63,18.56,81.08,15.29,29.96,38.65,50.51,67.57,59.43,31.47,9.71,80.71,15.28,135.09,15.28s103.62-5.57,135.09-15.28c28.92-8.92,52.28-29.48,67.57-59.43,11.97-23.45,18.56-52.25,18.56-81.08-.02-25.12-6.28-49.39-18.63-72.15Z"/>
  <g>
    <path class="cls-2" d="M221.22,211.23c10.08,2.28,9.84-21.36,36.55-48.09,42.55-42.6,89.82-63.28,82.72-61.56-126.96,30.78-99.68-86.42-98.1-88.49-84.65,59.64-38.5,194.22-21.17,198.14Z"/>
    <path class="cls-2" d="M613.08,211.23c-10.08,2.28-9.84-21.36-36.55-48.09-42.55-42.6-89.82-63.28-82.72-61.56,126.96,30.78,99.68-86.42,98.1-88.49,84.65,59.64,38.5,194.22,21.17,198.14Z"/>
  </g>
  <circle class="cls-5" cx="524.29" cy="335.53" r="22.58"/>
  <path class="cls-2" d="M523.85,303.57c-18.06,0-32.7,14.64-32.7,32.7s14.64,32.7,32.7,32.7,32.7-14.64,32.7-32.7-14.64-32.7-32.7-32.7ZM523.85,351.76c-8.56,0-15.49-6.94-15.49-15.49s6.94-15.49,15.49-15.49,15.49,6.94,15.49,15.49-6.93,15.49-15.49,15.49Z"/>
  <path class="cls-2" d="M294.67,337.03c-.01-.25-.04-.51-.04-.76,0-8.56,6.94-15.49,15.49-15.49s15.49,6.94,15.49,15.49c0,.26-.03.51-.04.76h17.23c.01-.25.02-.51.02-.76,0-18.06-14.64-32.7-32.7-32.7s-32.7,14.64-32.7,32.7c0,.26.01.51.02.76h17.23Z"/>
</svg>